<svg xmlns="http://www.w3.org/2000/svg" width="512" height="512" viewBox="0 0 512 512" fill="none">
  <rect width="512" height="512" rx="128" fill="url(#gradient)"/>
  <defs>
    <linearGradient id="gradient" x1="0%" y1="0%" x2="100%" y2="100%">
      <stop offset="0%" style="stop-color:#4F46E5;stop-opacity:1" />
      <stop offset="100%" style="stop-color:#6366F1;stop-opacity:1" />
    </linearGradient>
  </defs>
  <path d="M256 128C229.49 128 208 149.49 208 176V256C208 282.51 229.49 304 256 304C282.51 304 304 282.51 304 256V176C304 149.49 282.51 128 256 128Z" fill="white"/>
  <path d="M320 256C320 294.66 289.66 326.4 251.52 330.88C248.96 331.2 246.4 331.36 243.84 331.36C198.4 331.36 161.6 294.56 161.6 249.12V176C161.6 173.44 163.68 171.36 166.24 171.36C168.8 171.36 170.88 173.44 170.88 176V249.12C170.88 289.44 203.52 322.08 243.84 322.08C245.92 322.08 248 321.92 250.08 321.76C284.16 317.92 310.72 289.28 310.72 256V176C310.72 173.44 312.8 171.36 315.36 171.36C317.92 171.36 320 173.44 320 176V256Z" fill="white"/>
  <path d="M256 352C253.44 352 251.36 350.08 251.36 347.52V330.88C251.36 328.32 253.28 326.4 255.84 326.4C258.4 326.4 260.32 328.32 260.32 330.88V347.52C260.48 350.08 258.56 352 256 352Z" fill="white"/>
  <path d="M288 368H224C221.44 368 219.52 366.08 219.52 363.52C219.52 360.96 221.44 359.04 224 359.04H288C290.56 359.04 292.48 360.96 292.48 363.52C292.48 366.08 290.56 368 288 368Z" fill="white"/>
</svg>
